<svg width="240" height="80" viewBox="0 0 240 80" fill="none" xmlns="http://www.w3.org/2000/svg">
<path d="M40 40V12C56 12 68 24 68 40H40Z" fill="white"/>
<path d="M40.0003 40L64.249 26C72.249 39.8564 67.8567 56.2487 54.0003 64.2487L40.0003 40Z" fill="white"/>
<path d="M40.0003 40L64.249 54C56.249 67.8564 39.8567 72.2487 26.0003 64.2487L40.0003 40Z" fill="white"/>
<path d="M40 40V68C24 68 12 56 12 40H40Z" fill="white"/>
<path d="M40.0002 40L15.7515 54C7.75146 40.1436 12.1438 23.7513 26.0002 15.7513L40.0002 40Z" fill="white"/>
<path d="M40.0002 40L15.7515 26C23.7515 12.1436 40.1438 7.75129 54.0002 15.7513L40.0002 40Z" fill="white"/>
<path d="M40.0004 49.6C45.3023 49.6 49.6004 45.3019 49.6004 40C49.6004 34.6981 45.3023 30.4 40.0004 30.4C34.6985 30.4 30.4004 34.6981 30.4004 40C30.4004 45.3019 34.6985 49.6 40.0004 49.6Z" fill="#0A0A0F"/>
<path d="M57.6182 30.3818H62.4727L67.6 42.8909H67.8182L72.9455 30.3818H77.8V49H73.9818V36.8818H73.8273L69.0091 48.9091H66.4091L61.5909 36.8364H61.4364V49H57.6182V30.3818ZM87.2795 49.2727C85.8674 49.2727 84.6462 48.9727 83.6159 48.3727C82.5917 47.7667 81.8008 46.9242 81.2432 45.8455C80.6856 44.7606 80.4068 43.503 80.4068 42.0727C80.4068 40.6303 80.6856 39.3697 81.2432 38.2909C81.8008 37.2061 82.5917 36.3636 83.6159 35.7636C84.6462 35.1576 85.8674 34.8545 87.2795 34.8545C88.6917 34.8545 89.9098 35.1576 90.9341 35.7636C91.9644 36.3636 92.7583 37.2061 93.3159 38.2909C93.8735 39.3697 94.1523 40.6303 94.1523 42.0727C94.1523 43.503 93.8735 44.7606 93.3159 45.8455C92.7583 46.9242 91.9644 47.7667 90.9341 48.3727C89.9098 48.9727 88.6917 49.2727 87.2795 49.2727ZM87.2977 46.2727C87.9402 46.2727 88.4765 46.0909 88.9068 45.7273C89.3371 45.3576 89.6614 44.8545 89.8795 44.2182C90.1038 43.5818 90.2159 42.8576 90.2159 42.0455C90.2159 41.2333 90.1038 40.5091 89.8795 39.8727C89.6614 39.2364 89.3371 38.7333 88.9068 38.3636C88.4765 37.9939 87.9402 37.8091 87.2977 37.8091C86.6492 37.8091 86.1038 37.9939 85.6614 38.3636C85.225 38.7333 84.8947 39.2364 84.6705 39.8727C84.4523 40.5091 84.3432 41.2333 84.3432 42.0455C84.3432 42.8576 84.4523 43.5818 84.6705 44.2182C84.8947 44.8545 85.225 45.3576 85.6614 45.7273C86.1038 46.0909 86.6492 46.2727 87.2977 46.2727ZM100.543 40.9273V49H96.6705V35.0364H100.361V37.5H100.525C100.834 36.6879 101.352 36.0455 102.08 35.5727C102.807 35.0939 103.689 34.8545 104.725 34.8545C105.695 34.8545 106.54 35.0667 107.261 35.4909C107.983 35.9152 108.543 36.5212 108.943 37.3091C109.343 38.0909 109.543 39.0242 109.543 40.1091V49H105.67V40.8C105.677 39.9455 105.458 39.2788 105.016 38.8C104.573 38.3152 103.964 38.0727 103.189 38.0727C102.667 38.0727 102.207 38.1848 101.807 38.4091C101.413 38.6333 101.104 38.9606 100.88 39.3909C100.661 39.8152 100.549 40.3273 100.543 40.9273ZM118.959 49.2727C117.523 49.2727 116.286 48.9818 115.25 48.4C114.22 47.8121 113.426 46.9818 112.868 45.9091C112.311 44.8303 112.032 43.5545 112.032 42.0818C112.032 40.6455 112.311 39.3848 112.868 38.3C113.426 37.2152 114.211 36.3697 115.223 35.7636C116.241 35.1576 117.435 34.8545 118.805 34.8545C119.726 34.8545 120.583 35.003 121.377 35.3C122.177 35.5909 122.874 36.0303 123.468 36.6182C124.068 37.2061 124.535 37.9455 124.868 38.8364C125.202 39.7212 125.368 40.7576 125.368 41.9455V43.0091H113.577V40.6091H121.723C121.723 40.0515 121.602 39.5576 121.359 39.1273C121.117 38.697 120.78 38.3606 120.35 38.1182C119.926 37.8697 119.432 37.7455 118.868 37.7455C118.28 37.7455 117.759 37.8818 117.305 38.1545C116.856 38.4212 116.505 38.7818 116.25 39.2364C115.995 39.6848 115.865 40.1848 115.859 40.7364V43.0182C115.859 43.7091 115.986 44.3061 116.241 44.8091C116.502 45.3121 116.868 45.7 117.341 45.9727C117.814 46.2455 118.374 46.3818 119.023 46.3818C119.453 46.3818 119.847 46.3212 120.205 46.2C120.562 46.0788 120.868 45.897 121.123 45.6545C121.377 45.4121 121.571 45.1152 121.705 44.7636L125.286 45C125.105 45.8606 124.732 46.6121 124.168 47.2545C123.611 47.8909 122.889 48.3879 122.005 48.7455C121.126 49.097 120.111 49.2727 118.959 49.2727ZM129.911 54.2364C129.42 54.2364 128.96 54.197 128.53 54.1182C128.105 54.0455 127.754 53.9515 127.475 53.8364L128.348 50.9455C128.802 51.0848 129.211 51.1606 129.575 51.1727C129.945 51.1848 130.263 51.1 130.53 50.9182C130.802 50.7364 131.023 50.4273 131.193 49.9909L131.42 49.4L126.411 35.0364H130.484L133.375 45.2909H133.52L136.439 35.0364H140.539L135.111 50.5091C134.851 51.2606 134.496 51.9152 134.048 52.4727C133.605 53.0364 133.045 53.4697 132.366 53.7727C131.687 54.0818 130.869 54.2364 129.911 54.2364ZM152.693 35.7364C152.62 35.003 152.308 34.4333 151.757 34.0273C151.205 33.6212 150.457 33.4182 149.511 33.4182C148.869 33.4182 148.327 33.5091 147.884 33.6909C147.442 33.8667 147.102 34.1121 146.866 34.4273C146.636 34.7424 146.52 35.1 146.52 35.5C146.508 35.8333 146.578 36.1242 146.73 36.3727C146.887 36.6212 147.102 36.8364 147.375 37.0182C147.648 37.1939 147.963 37.3485 148.32 37.4818C148.678 37.6091 149.06 37.7182 149.466 37.8091L151.139 38.2091C151.951 38.3909 152.696 38.6333 153.375 38.9364C154.054 39.2394 154.642 39.6121 155.139 40.0545C155.636 40.497 156.02 41.0182 156.293 41.6182C156.572 42.2182 156.714 42.9061 156.72 43.6818C156.714 44.8212 156.423 45.8091 155.848 46.6455C155.278 47.4758 154.454 48.1212 153.375 48.5818C152.302 49.0364 151.008 49.2636 149.493 49.2636C147.99 49.2636 146.681 49.0333 145.566 48.5727C144.457 48.1121 143.59 47.4303 142.966 46.5273C142.348 45.6182 142.023 44.4939 141.993 43.1545H145.802C145.845 43.7788 146.023 44.3 146.339 44.7182C146.66 45.1303 147.087 45.4424 147.62 45.6545C148.16 45.8606 148.769 45.9636 149.448 45.9636C150.114 45.9636 150.693 45.8667 151.184 45.6727C151.681 45.4788 152.066 45.2091 152.339 44.8636C152.611 44.5182 152.748 44.1212 152.748 43.6727C152.748 43.2545 152.623 42.903 152.375 42.6182C152.133 42.3333 151.775 42.0909 151.302 41.8909C150.836 41.6909 150.263 41.5091 149.584 41.3455L147.557 40.8364C145.987 40.4545 144.748 39.8576 143.839 39.0455C142.93 38.2333 142.478 37.1394 142.484 35.7636C142.478 34.6364 142.778 33.6515 143.384 32.8091C143.996 31.9667 144.836 31.3091 145.902 30.8364C146.969 30.3636 148.181 30.1273 149.539 30.1273C150.92 30.1273 152.127 30.3636 153.157 30.8364C154.193 31.3091 154.999 31.9667 155.575 32.8091C156.151 33.6515 156.448 34.6273 156.466 35.7364H152.693ZM163.168 40.9273V49H159.295V35.0364H162.986V37.5H163.15C163.459 36.6879 163.977 36.0455 164.705 35.5727C165.432 35.0939 166.314 34.8545 167.35 34.8545C168.32 34.8545 169.165 35.0667 169.886 35.4909C170.608 35.9152 171.168 36.5212 171.568 37.3091C171.968 38.0909 172.168 39.0242 172.168 40.1091V49H168.295V40.8C168.302 39.9455 168.083 39.2788 167.641 38.8C167.198 38.3152 166.589 38.0727 165.814 38.0727C165.292 38.0727 164.832 38.1848 164.432 38.4091C164.038 38.6333 163.729 38.9606 163.505 39.3909C163.286 39.8152 163.174 40.3273 163.168 40.9273ZM179.202 49.2636C178.311 49.2636 177.517 49.1091 176.82 48.8C176.123 48.4848 175.572 48.0212 175.166 47.4091C174.766 46.7909 174.566 46.0212 174.566 45.1C174.566 44.3242 174.708 43.6727 174.993 43.1455C175.278 42.6182 175.666 42.1939 176.157 41.8727C176.648 41.5515 177.205 41.3091 177.83 41.1455C178.46 40.9818 179.12 40.8667 179.811 40.8C180.623 40.7152 181.278 40.6364 181.775 40.5636C182.272 40.4848 182.633 40.3697 182.857 40.2182C183.081 40.0667 183.193 39.8424 183.193 39.5455V39.4909C183.193 38.9152 183.011 38.4697 182.648 38.1545C182.29 37.8394 181.781 37.6818 181.12 37.6818C180.423 37.6818 179.869 37.8364 179.457 38.1455C179.045 38.4485 178.772 38.8303 178.639 39.2909L175.057 39C175.239 38.1515 175.596 37.4182 176.13 36.8C176.663 36.1758 177.351 35.697 178.193 35.3636C179.042 35.0242 180.023 34.8545 181.139 34.8545C181.914 34.8545 182.657 34.9455 183.366 35.1273C184.081 35.3091 184.714 35.5909 185.266 35.9727C185.823 36.3545 186.263 36.8455 186.584 37.4455C186.905 38.0394 187.066 38.7515 187.066 39.5818V49H183.393V47.0636H183.284C183.06 47.5 182.76 47.8848 182.384 48.2182C182.008 48.5455 181.557 48.803 181.03 48.9909C180.502 49.1727 179.893 49.2636 179.202 49.2636ZM180.311 46.5909C180.881 46.5909 181.384 46.4788 181.82 46.2545C182.257 46.0242 182.599 45.7152 182.848 45.3273C183.096 44.9394 183.22 44.5 183.22 44.0091V42.5273C183.099 42.6061 182.933 42.6788 182.72 42.7455C182.514 42.8061 182.281 42.8636 182.02 42.9182C181.76 42.9667 181.499 43.0121 181.239 43.0545C180.978 43.0909 180.742 43.1242 180.53 43.1545C180.075 43.2212 179.678 43.3273 179.339 43.4727C178.999 43.6182 178.736 43.8152 178.548 44.0636C178.36 44.3061 178.266 44.6091 178.266 44.9727C178.266 45.5 178.457 45.903 178.839 46.1818C179.227 46.4545 179.717 46.5909 180.311 46.5909ZM190.07 54.2364V35.0364H193.889V37.3818H194.061C194.231 37.0061 194.477 36.6242 194.798 36.2364C195.125 35.8424 195.549 35.5152 196.07 35.2545C196.598 34.9879 197.252 34.8545 198.034 34.8545C199.052 34.8545 199.992 35.1212 200.852 35.6545C201.713 36.1818 202.401 36.9788 202.916 38.0455C203.431 39.1061 203.689 40.4364 203.689 42.0364C203.689 43.5939 203.437 44.9091 202.934 45.9818C202.437 47.0485 201.758 47.8576 200.898 48.4091C200.043 48.9545 199.086 49.2273 198.025 49.2273C197.273 49.2273 196.634 49.103 196.107 48.8545C195.586 48.6061 195.158 48.2939 194.825 47.9182C194.492 47.5364 194.237 47.1515 194.061 46.7636H193.943V54.2364H190.07ZM193.861 42.0182C193.861 42.8485 193.977 43.5727 194.207 44.1909C194.437 44.8091 194.77 45.2909 195.207 45.6364C195.643 45.9758 196.173 46.1455 196.798 46.1455C197.428 46.1455 197.961 45.9727 198.398 45.6273C198.834 45.2758 199.164 44.7909 199.389 44.1727C199.619 43.5485 199.734 42.8303 199.734 42.0182C199.734 41.2121 199.622 40.503 199.398 39.8909C199.173 39.2788 198.843 38.8 198.407 38.4545C197.97 38.1091 197.434 37.9364 196.798 37.9364C196.167 37.9364 195.634 38.103 195.198 38.4364C194.767 38.7697 194.437 39.2424 194.207 39.8545C193.977 40.4667 193.861 41.1879 193.861 42.0182Z" fill="white"/>
</svg>
